<svg width="113" height="122" viewBox="0 0 113 122" fill="none" xmlns="http://www.w3.org/2000/svg">
<path d="M105.233 0.385422C105.829 -0.102746 106.729 0.236329 106.854 0.995773L112.477 35.1003C112.602 35.8598 111.857 36.4702 111.137 36.1989L102.135 32.8073L87.5342 73.6901C86.6736 76.0997 84.7114 77.9525 82.2568 78.6745C79.8022 79.3963 77.1501 78.9005 75.1221 77.3405L71.2246 74.3425L58.1387 116.378C57.1529 119.544 54.3154 121.774 51.0059 121.984C47.6961 122.194 44.5999 120.339 43.2227 117.322L1.22266 25.3219C-0.612108 21.3027 1.15853 16.5572 5.17773 14.7223C9.19686 12.8878 13.9425 14.6584 15.7773 18.6774L49.083 91.6335L59.3613 58.6217L59.5215 58.1598C60.3859 55.883 62.2462 54.1133 64.585 53.3727C67.0797 52.5829 69.8038 53.0634 71.8779 54.6589L76.1631 57.9548L87.1592 27.1667L78.791 24.0153C78.0707 23.744 77.9139 22.7946 78.5088 22.3063L105.233 0.385422Z" fill="#19BC7B"/>
</svg> 