<svg width="100" height="100" viewBox="0 0 100 100" fill="none" xmlns="http://www.w3.org/2000/svg">
<path d="M0 40C0 21.1438 0 11.7157 5.85786 5.85786C11.7157 0 21.1438 0 40 0H60C78.8562 0 88.2843 0 94.1421 5.85786C100 11.7157 100 21.1438 100 40V60C100 78.8562 100 88.2843 94.1421 94.1421C88.2843 100 78.8562 100 60 100H40C21.1438 100 11.7157 100 5.85786 94.1421C0 88.2843 0 78.8562 0 60V40Z" fill="#19BC7B"/>
<path d="M75.6399 20.2192C76.249 19.7583 77.1221 20.0618 77.2503 20.7787L79.9856 36.0834C80.1196 36.8342 79.343 37.4696 78.6048 37.2133L74.5862 35.8168L66.7444 56.0688C66.2822 57.2624 65.2288 58.1809 63.9104 58.5385C62.5921 58.896 61.1676 58.6501 60.0784 57.8774L57.9856 56.392L50.9573 77.2153C50.4278 78.7837 48.9037 79.8887 47.1262 79.9926C45.3488 80.0963 43.6863 79.1773 42.9466 77.683L20.3889 32.1098C19.4035 30.1188 20.3553 27.7678 22.5139 26.8588C24.6725 25.9501 27.2209 26.8269 28.2063 28.8178L46.094 64.9575L51.6135 48.6049L51.6995 48.3764C52.1637 47.2485 53.1631 46.3712 54.4192 46.0043C55.7591 45.613 57.2222 45.8516 58.3362 46.642L60.638 48.2748L66.5432 33.0229L62.8665 31.7455C62.1282 31.489 61.9991 30.5388 62.637 30.0561L75.6399 20.2192Z" fill="white"/>
</svg>
